<?xml version="1.0" encoding="UTF-8" standalone="no"?>
<!-- Created with Inkscape (http://www.inkscape.org/) -->

<svg
   width="128"
   height="128"
   viewBox="0 0 33.866666 33.866666"
   version="1.1"
   id="svg1"
   xml:space="preserve"
   inkscape:version="1.3 (0e150ed6c4, 2023-07-21)"
   sodipodi:docname="web-checker icon.svg"
   inkscape:export-filename="icon16.png"
   inkscape:export-xdpi="12"
   inkscape:export-ydpi="12"
   xmlns:inkscape="http://www.inkscape.org/namespaces/inkscape"
   xmlns:sodipodi="http://sodipodi.sourceforge.net/DTD/sodipodi-0.dtd"
   xmlns="http://www.w3.org/2000/svg"
   xmlns:svg="http://www.w3.org/2000/svg"><sodipodi:namedview
     id="namedview1"
     pagecolor="#ffffff"
     bordercolor="#000000"
     borderopacity="0.25"
     inkscape:showpageshadow="2"
     inkscape:pageopacity="0.0"
     inkscape:pagecheckerboard="true"
     inkscape:deskcolor="#d1d1d1"
     inkscape:document-units="mm"
     inkscape:zoom="6.4799707"
     inkscape:cx="70.216366"
     inkscape:cy="65.741038"
     inkscape:window-width="1714"
     inkscape:window-height="1360"
     inkscape:window-x="1717"
     inkscape:window-y="80"
     inkscape:window-maximized="0"
     inkscape:current-layer="layer1"
     inkscape:export-bgcolor="#ffffff00" /><defs
     id="defs1" /><g
     inkscape:label="Layer 1"
     inkscape:groupmode="layer"
     id="layer1"><circle
       style="fill:#ffffff;fill-opacity:1;stroke:none;stroke-width:0.5385;stroke-dasharray:none;stroke-opacity:1"
       id="path4"
       cx="16.933332"
       cy="16.933332"
       r="16.933332" /><path
       style="fill:#000000;stroke-width:0.227222"
       d="M 15.331832,33.053708 C 3.3259069,31.903838 -3.2479195,18.194517 3.3528949,8.0723509 10.141468,-2.3377389 25.736557,-1.5148134 31.347784,9.5495917 37.134886,20.960797 28.063737,34.273109 15.331832,33.053708 Z m 0.99171,-3.423332 v -2.161319 h -0.204389 c -0.775364,0 -3.882664,0.818669 -3.882664,1.022948 0,0.264608 1.284745,1.798579 1.941598,2.318251 0.682512,0.539967 1.907404,1.128642 2.10028,1.009376 0.02483,-0.01536 0.04517,-1.000528 0.04517,-2.189256 z m 2.250643,1.87809 c 1.070099,-0.501023 2.289688,-1.692993 3.035316,-2.96658 l 0.128853,-0.220081 -0.485909,-0.187478 c -0.949327,-0.366299 -2.676798,-0.725406 -3.489492,-0.725406 h -0.237334 v 2.184915 c 0,2.58618 -0.07873,2.442432 1.048566,1.91463 z M 12.464049,30.881731 C 11.966258,30.31698 11.740592,30.022564 11.36392,29.446461 l -0.30788,-0.470896 -0.717032,0.395986 c -0.3943642,0.217795 -0.7530087,0.429953 -0.7969844,0.471464 l -0.079952,0.07548 0.5908374,0.303211 c 0.856112,0.439346 2.466596,1.081038 2.744947,1.093714 0.02776,0.0012 -0.122439,-0.193897 -0.333804,-0.433682 z m 9.47919,0.150217 c 0.589738,-0.204747 2.176289,-0.939073 2.395071,-1.108549 l 0.111121,-0.08607 -0.471752,-0.309521 C 23.718216,29.357577 23.359165,29.13813 23.179787,29.04016 l -0.326141,-0.178122 -0.255724,0.41499 c -0.327301,0.531142 -0.821532,1.186247 -1.258374,1.667975 l -0.343655,0.378965 0.173151,-0.04168 c 0.09522,-0.02293 0.443616,-0.135572 0.774188,-0.250343 z M 9.0209432,28.717962 c 0.3636264,-0.214525 0.8418245,-0.488844 1.0626588,-0.609603 l 0.401518,-0.219554 -0.235231,-0.50223 C 9.7960116,26.417511 9.3476536,25.080491 8.9314841,23.455039 8.8955065,23.31447 8.8341207,23.199464 8.7951097,23.199464 c -0.3196239,0 -4.7443961,1.013936 -4.8393442,1.108933 -0.078787,0.07883 0.8340145,1.422088 1.5348038,2.258638 0.7812913,0.932654 2.6775265,2.650222 2.8299851,2.563341 0.021581,-0.01225 0.3367633,-0.197889 0.7003888,-0.412414 z M 26.363917,28.52992 c 0.770514,-0.630181 1.705115,-1.571094 2.276128,-2.291504 0.634984,-0.801111 1.319492,-1.863833 1.247143,-1.93622 -0.117309,-0.117371 -4.807834,-1.163563 -4.882374,-1.088985 -0.0173,0.01731 -0.136881,0.43405 -0.265613,0.925976 -0.279872,1.069453 -0.62612,2.088331 -0.993549,2.92365 -0.339203,0.771142 -0.363395,0.682064 0.287029,1.056858 0.305318,0.175924 0.757972,0.464316 1.005898,0.640853 0.5816,0.414128 0.524947,0.423985 1.325338,-0.230628 z M 12.233583,27.139425 c 1.078633,-0.411838 2.350422,-0.727914 3.534,-0.878301 l 0.555959,-0.07063 v -1.85633 -1.856324 l -0.195337,5.57e-4 c -1.341631,0.0039 -5.864284,0.395096 -5.991999,0.518225 -0.1666017,0.1606 1.271631,4.352153 1.493334,4.352153 0.03064,0 0.302457,-0.09421 0.604043,-0.209362 z m 10.352236,-0.48532 c 0.491475,-1.134292 1.251544,-3.59026 1.133665,-3.663154 -0.170216,-0.105253 -3.452567,-0.412209 -5.218063,-0.487978 l -0.977565,-0.04195 0.01594,1.857564 0.01594,1.857566 0.661141,0.04406 c 1.13399,0.07553 3.466975,0.636652 3.936795,0.946841 0.14792,0.09767 0.188546,0.04944 0.432215,-0.512932 z M 4.9338921,22.776842 c 1.239499,-0.312752 2.7291615,-0.637408 3.4471824,-0.751273 l 0.2616857,-0.0415 -0.038168,-0.189093 C 8.5257588,21.404367 8.334271,19.778355 8.2955116,19.170405 8.273376,18.823124 8.2480453,18.471333 8.2392637,18.388647 c -0.00871,-0.0827 -0.019046,-0.305939 -0.022863,-0.496116 l -0.00679,-0.345779 H 5.0825308 1.9554617 l 0.035415,0.405915 c 0.1414484,1.621124 0.4617898,3.042199 0.9934782,4.407228 0.3129924,0.803555 0.3443777,0.85786 0.4666277,0.807329 0.055318,-0.02287 0.7226465,-0.19853 1.4829573,-0.390374 z M 30.812885,22.504655 c 0.56259,-1.378118 1.077516,-3.7093 1.077516,-4.878151 v -0.07976 H 28.776456 25.66251 l -0.07233,1.146297 c -0.06469,1.025324 -0.259766,2.806448 -0.344477,3.145279 l -0.03209,0.128356 1.164377,0.228581 c 0.970548,0.190531 3.242996,0.732192 3.91966,0.934295 0.233681,0.0698 0.229621,0.07472 0.51523,-0.624907 z M 10.866833,21.638667 c 1.304275,-0.166844 2.956883,-0.30239 4.284687,-0.351429 l 1.141971,-0.04219 0.01594,-1.849157 0.01594,-1.84916 H 12.889167 9.452973 l 0.037556,0.947132 c 0.050078,1.262786 0.2991528,3.262335 0.4063997,3.262335 0.028105,0 0.4646103,-0.0529 0.9699963,-0.11754 z M 24.069,21.380366 c 0.141371,-0.823553 0.253197,-1.927689 0.289284,-2.856424 l 0.03797,-0.977198 h -3.436183 -3.436186 l 0.01594,1.849159 0.01594,1.849158 1.081867,0.03786 c 1.269612,0.04444 3.093259,0.194013 4.23731,0.347518 0.446272,0.05988 0.883002,0.112681 0.970515,0.11731 l 0.159117,0.0083 z M 8.2101382,16.058398 c 0.00182,-0.722592 0.2827567,-3.602261 0.3978095,-4.078864 l 0.030162,-0.124973 -0.4396759,-0.07503 C 7.2149857,11.611729 4.647728,11.016914 3.6231322,10.719474 L 3.3341379,10.63558 3.1642716,11.014383 C 2.5875791,12.3004 2.1417575,14.148192 1.9908294,15.877974 l -0.035415,0.405914 H 5.0824829 8.20955 Z m 8.1134038,-1.629411 v -1.854918 l -1.217099,-0.03767 c -1.344921,-0.04162 -2.749087,-0.156496 -4.242161,-0.34704 -0.539843,-0.0689 -0.9931231,-0.113675 -1.0072893,-0.0995 -0.097206,0.09726 -0.3852714,2.875822 -0.3852714,3.716233 v 0.477805 h 3.4259107 3.42591 z m 8.053898,1.293293 c 0,-0.866819 -0.283441,-3.530528 -0.386667,-3.633809 -0.01211,-0.01212 -0.450662,0.03282 -0.974641,0.09979 -1.363835,0.174292 -2.999765,0.309348 -4.318492,0.356497 l -1.141972,0.04082 -0.01594,1.84916 -0.01594,1.849157 h 3.42678 3.426781 z m 7.512961,0.481867 c 0,-1.237938 -0.613086,-3.892051 -1.196338,-5.17906 l -0.172996,-0.381723 -0.772853,0.206954 c -1.16294,0.311409 -2.402422,0.598263 -3.507564,0.811752 -0.545442,0.105363 -0.997338,0.195017 -1.004211,0.199218 -0.0068,0.0042 0.02692,0.250072 0.0751,0.546376 0.114837,0.706258 0.250314,2.083406 0.302928,3.079449 l 0.04208,0.796791 h 3.116919 3.116918 z M 16.323542,9.4886249 V 7.6244319 L 16.24841,7.623284 C 15.40218,7.6100103 13.454524,7.1564972 12.216309,6.6843486 11.924225,6.5729708 11.663069,6.4818453 11.635963,6.4818453 c -0.19691,0 -1.5031,3.6842587 -1.5031,4.2396637 v 0.13386 l 0.285491,0.03969 c 1.571655,0.218553 3.767251,0.396669 5.499488,0.446143 l 0.405701,0.01163 z m 4.267366,1.7090021 c 1.099601,-0.08579 3.052685,-0.311001 3.134227,-0.361424 0.109801,-0.06789 -0.638289,-2.4966258 -1.093836,-3.5512463 -0.312543,-0.7235579 -0.303932,-0.7134645 -0.515867,-0.6046514 -0.795443,0.4083969 -3.131859,0.9441266 -4.117517,0.9441266 -0.155191,0 -0.324939,0.016329 -0.377227,0.036504 l -0.09507,0.036504 v 1.8323603 1.8323628 l 0.976685,-0.0389 c 0.537176,-0.0214 1.477045,-0.07793 2.088603,-0.125633 z M 9.0497224,9.9396393 C 9.3761296,8.6469142 9.9338801,7.0495477 10.336255,6.2550822 L 10.492748,5.9461149 10.087419,5.7244282 C 9.8644886,5.6025092 9.3845782,5.3272218 9.0209499,5.1126955 8.6573225,4.8981714 8.3421477,4.7125855 8.3205611,4.7002829 8.1578669,4.6075745 6.2090501,6.3885652 5.4169978,7.353824 4.71127,8.2138765 3.8790212,9.4454718 3.9533302,9.5198186 4.0681689,9.6347173 8.5134914,10.644356 8.7715181,10.614144 l 0.1111815,-0.01302 z M 26.390913,10.378743 C 27.123932,10.231074 29.18509,9.7399497 29.771747,9.5731756 30.090673,9.4825094 28.967128,7.8442015 27.656232,6.4884186 25.938971,4.7123522 25.725767,4.6188797 24.795138,5.2340566 24.382355,5.5069207 23.915124,5.7978246 23.75685,5.8805112 l -0.287775,0.1503326 0.02763,0.1202664 c 0.01516,0.066143 0.138689,0.3715993 0.274428,0.6787809 0.417956,0.9458171 0.714998,1.8663414 1.155367,3.5804679 l 0.05914,0.230188 0.251865,-0.0401 c 0.138532,-0.02205 0.657565,-0.12182 1.15342,-0.221717 z M 18.693048,6.3308671 c 0.81069,-0.1063218 1.873025,-0.3697072 2.559391,-0.6345355 L 21.738348,5.5088536 21.609495,5.2887732 C 20.70967,3.7518055 19.33701,2.5334922 18.03659,2.1176118 17.480952,1.9399162 17.525613,1.75526 17.525613,4.230349 v 2.1913864 h 0.237334 c 0.130544,0 0.549077,-0.040879 0.930096,-0.090861 z M 16.323542,4.2002727 c 0,-1.1887251 -0.02034,-2.1738892 -0.04517,-2.189253 -0.196502,-0.1215106 -1.428387,0.4750039 -2.113392,1.0233655 -0.668292,0.5349774 -1.928487,2.0407291 -1.928487,2.3042583 0,0.1136728 1.674304,0.6461534 2.63896,0.8392616 0.799355,0.1600176 0.840739,0.1662603 1.162602,0.1754982 l 0.285491,0.00817 z m 7.715782,0.066085 0.413184,-0.2707657 -0.112659,-0.08524 C 23.945617,3.6120722 21.8516,2.712664 21.168628,2.5482724 l -0.173578,-0.041775 0.388108,0.4392081 c 0.480672,0.5439567 0.850139,1.0306139 1.211376,1.5956071 l 0.27798,0.4347761 0.376814,-0.2194779 c 0.207247,-0.120712 0.562746,-0.3413223 0.789994,-0.4902446 z M 11.311519,4.4522984 c 0.304118,-0.4764858 0.69523,-0.9868909 1.15448,-1.5066074 l 0.388109,-0.4392081 -0.17358,0.041229 C 12.231922,2.654287 11.102775,3.1033255 10.321525,3.4858508 l -0.8631444,0.4226248 0.081789,0.07649 c 0.1216016,0.1136918 1.3923574,0.8130962 1.4773594,0.813106 0.04031,5.9e-6 0.17259,-0.1555836 0.293977,-0.3457688 z"
       id="path1" /><path
       id="path3"
       style="fill:#ffffff;fill-opacity:1;stroke:none;stroke-width:0.360861"
       d="m 29.210534,7.7450196 c -2.222137,0.2702458 -4.166333,1.5315919 -6.05334,2.6491324 -3.830516,2.36124 -7.264,5.34713 -10.135944,8.80948 C 11.255363,16.725158 9.4919743,14.244903 7.7244677,11.767585 6.0554049,13.936743 4.38771,16.106956 2.7172801,18.275061 6.3792648,21.894049 10.0411,25.51319 13.703199,29.132063 c 2.63966,-4.683755 6.254301,-8.761666 9.620476,-12.967133 2.073658,-2.598908 4.387023,-5.026267 7.090079,-6.9775414 0.646738,-0.5769811 -0.07481,-1.4890957 -0.803392,-1.4386323 -0.133213,-0.012586 -0.266359,-0.01 -0.399828,-0.00374 z" /><path
       style="fill:#0d6efd;fill-opacity:1;stroke:#000000;stroke-width:1.03025;stroke-dasharray:none;stroke-opacity:1"
       d="M 3.3909527,18.229736 7.7102088,12.6186 12.991468,20.037735 c 0,0 3.232556,-4.167255 7.631802,-7.322184 8.571341,-6.146956 10.013981,-4.3122584 9.41572,-3.8678573 -4.069463,3.0228813 -5.519243,5.0262893 -10.844872,11.6039263 -4.176701,5.158608 -5.602671,7.858822 -5.602671,7.858822 z"
       id="path2"
       sodipodi:nodetypes="cccssscc" /></g></svg>
