<?xml version="1.0" encoding="UTF-8" standalone="no"?>
<!-- Created with Inkscape (http://www.inkscape.org/) -->

<svg
   width="440"
   height="280"
   viewBox="0 0 116.41665 74.083323"
   version="1.1"
   id="svg1"
   inkscape:version="1.4.2 (f4327f4, 2025-05-13)"
   sodipodi:docname="small_promo_tile.svg"
   inkscape:export-filename="small_promo_tile.png"
   inkscape:export-xdpi="96"
   inkscape:export-ydpi="96"
   xmlns:inkscape="http://www.inkscape.org/namespaces/inkscape"
   xmlns:sodipodi="http://sodipodi.sourceforge.net/DTD/sodipodi-0.dtd"
   xmlns:xlink="http://www.w3.org/1999/xlink"
   xmlns="http://www.w3.org/2000/svg"
   xmlns:svg="http://www.w3.org/2000/svg">
  <sodipodi:namedview
     id="namedview1"
     pagecolor="#ffffff"
     bordercolor="#000000"
     borderopacity="0.25"
     inkscape:showpageshadow="2"
     inkscape:pageopacity="0.0"
     inkscape:pagecheckerboard="0"
     inkscape:deskcolor="#d1d1d1"
     inkscape:document-units="mm"
     inkscape:zoom="2.0792508"
     inkscape:cx="211.61468"
     inkscape:cy="108.69299"
     inkscape:window-width="1718"
     inkscape:window-height="1360"
     inkscape:window-x="-7"
     inkscape:window-y="0"
     inkscape:window-maximized="0"
     inkscape:current-layer="layer1"
     inkscape:export-bgcolor="#ffffffff" />
  <defs
     id="defs1">
    <linearGradient
       id="linearGradient2"
       inkscape:collect="always">
      <stop
         style="stop-color:#0d6efd;stop-opacity:1;"
         offset="0.14837398"
         id="stop3" />
      <stop
         style="stop-color:#000000;stop-opacity:0;"
         offset="0.40040651"
         id="stop2" />
      <stop
         style="stop-color:#000000;stop-opacity:0;"
         offset="0.59959346"
         id="stop10" />
      <stop
         style="stop-color:#0d6efd;stop-opacity:1;"
         offset="0.85000002"
         id="stop4" />
    </linearGradient>
    <rect
       x="225.56201"
       y="81.279275"
       width="256.34233"
       height="166.88703"
       id="rect1" />
    <linearGradient
       inkscape:collect="always"
       xlink:href="#linearGradient2"
       id="linearGradient3"
       x1="50.072624"
       y1="-19.087408"
       x2="50.072624"
       y2="95.309769"
       gradientUnits="userSpaceOnUse"
       gradientTransform="matrix(1.0176534,0,0,1.0377723,7.2517667,-2.5090628)" />
  </defs>
  <g
     inkscape:label="Layer 1"
     inkscape:groupmode="layer"
     id="layer1">
    <rect
       style="fill:url(#linearGradient3);stroke-width:0.271903;opacity:1"
       id="rect2"
       width="116.41666"
       height="74.083336"
       x="5.0862632e-06"
       y="-1.2715658e-06" />
    <path
       style="fill:#000000;stroke-width:0.260574"
       d="M 20.228127,55.528247 C 6.4599281,54.209594 -1.0788276,38.487969 6.4908788,26.880035 14.275902,14.941914 32.160096,15.885632 38.594958,28.574111 45.231509,41.660294 34.828862,56.926636 20.228127,55.528247 Z m 1.137276,-3.925821 V 49.12386 h -0.234389 c -0.889176,0 -4.452576,0.938836 -4.452576,1.1731 0,0.303448 1.473324,2.062581 2.226593,2.658533 0.782694,0.619224 2.187379,1.294307 2.408567,1.157536 0.02847,-0.01762 0.0518,-1.147389 0.0518,-2.510603 z m 2.581001,2.153762 c 1.227172,-0.574565 2.625777,-1.941496 3.480851,-3.402025 l 0.147767,-0.252386 -0.557233,-0.214997 c -1.088674,-0.420065 -3.069708,-0.831883 -4.001693,-0.831883 h -0.272171 v 2.505625 c 0,2.965789 -0.09029,2.800941 1.202479,2.195666 z M 16.939399,53.037459 C 16.368541,52.389812 16.109752,52.05218 15.677791,51.391515 l -0.353073,-0.540016 -0.82228,0.45411 c -0.452251,0.249764 -0.863539,0.493064 -0.913968,0.540667 l -0.09169,0.08656 0.677562,0.347717 c 0.981775,0.503835 2.828651,1.239717 3.14786,1.254253 0.03184,0.0014 -0.140411,-0.222358 -0.382801,-0.497339 z m 10.870581,0.172267 c 0.676301,-0.234801 2.495733,-1.076914 2.746628,-1.271267 l 0.127432,-0.0987 -0.540998,-0.354954 c -0.297548,-0.195218 -0.709301,-0.446876 -0.915009,-0.559227 l -0.374013,-0.204267 -0.29326,0.475903 c -0.375344,0.609105 -0.94212,1.36037 -1.443083,1.912807 l -0.394098,0.434591 0.198566,-0.0478 c 0.109198,-0.0263 0.508733,-0.155472 0.887827,-0.287089 z M 12.990902,50.556083 c 0.417002,-0.246012 0.965391,-0.560597 1.21864,-0.699082 l 0.460454,-0.251781 -0.269759,-0.575948 c -0.520499,-1.111308 -1.034668,-2.64458 -1.511924,-4.508622 -0.04126,-0.161202 -0.111652,-0.29309 -0.156393,-0.29309 -0.366539,0 -5.4407942,1.162766 -5.5496807,1.271707 -0.090355,0.0904 0.9564348,1.630827 1.7600881,2.59017 0.8959729,1.069552 3.0705436,3.039231 3.2453806,2.939597 0.02475,-0.01405 0.386195,-0.226936 0.803194,-0.472951 z M 32.879541,50.34044 c 0.883614,-0.722681 1.9554,-1.801705 2.610224,-2.627859 0.728196,-0.918701 1.51317,-2.137413 1.430211,-2.220425 -0.134529,-0.1346 -5.51355,-1.334355 -5.599032,-1.24883 -0.01984,0.01985 -0.156973,0.49776 -0.3046,1.061894 -0.320953,1.226431 -0.718024,2.394864 -1.139386,3.352794 -0.388992,0.884333 -0.416736,0.78218 0.329161,1.211988 0.350132,0.201747 0.869228,0.53247 1.153546,0.73492 0.66697,0.474914 0.602001,0.486218 1.519876,-0.264482 z M 16.675106,48.745844 c 1.236958,-0.47229 2.695424,-0.83476 4.052733,-1.007222 l 0.637564,-0.081 v -2.12881 -2.128803 l -0.224009,6.38e-4 c -1.538561,0.0045 -6.725065,0.453091 -6.871526,0.594294 -0.191057,0.184173 1.458286,4.990977 1.712531,4.990977 0.03514,0 0.346852,-0.108038 0.692707,-0.240093 z M 28.54688,48.189286 c 0.563616,-1.300786 1.43525,-4.117251 1.300069,-4.200844 -0.195201,-0.120703 -3.959348,-0.472715 -5.98399,-0.559606 l -1.121055,-0.04811 0.01828,2.130225 0.01828,2.130225 0.758185,0.05053 c 1.300442,0.08662 3.975871,0.730103 4.514652,1.085822 0.169633,0.112007 0.216222,0.05669 0.495658,-0.588221 z M 8.3039387,43.742905 c 1.4214376,-0.358659 3.1297583,-0.730969 3.9531723,-0.861547 l 0.300097,-0.0476 -0.04377,-0.216848 c -0.0904,-0.447943 -0.31,-2.312627 -0.354448,-3.009815 -0.02539,-0.398256 -0.05444,-0.801685 -0.06451,-0.896507 -0.01,-0.09484 -0.02184,-0.350846 -0.02622,-0.568939 l -0.0078,-0.396533 H 8.4744093 4.8883376 l 0.04062,0.465497 c 0.1622096,1.859078 0.5295721,3.488744 1.1393041,5.054137 0.3589335,0.921504 0.3949263,0.98378 0.5351205,0.925832 0.063436,-0.02622 0.8287191,-0.22767 1.7006311,-0.447673 z m 29.6776043,-0.31214 c 0.645169,-1.580403 1.235682,-4.253764 1.235682,-5.594184 v -0.09147 h -3.571026 -3.57102 l -0.08294,1.314554 c -0.07419,1.175825 -0.297896,3.218389 -0.39504,3.606955 l -0.03681,0.147196 1.335289,0.262134 c 1.113008,0.218498 3.719011,0.839666 4.495006,1.071434 0.26798,0.08005 0.263323,0.08569 0.590856,-0.716633 z M 15.107738,42.437664 c 1.495723,-0.191333 3.390905,-0.346776 4.91361,-0.403013 l 1.309593,-0.04838 0.01828,-2.120583 0.01828,-2.120586 h -3.940582 -3.940571 l 0.04308,1.086155 c 0.05743,1.448143 0.343063,3.741193 0.466052,3.741193 0.03222,0 0.532808,-0.06066 1.112376,-0.134794 z m 15.140031,-0.296215 c 0.162121,-0.944437 0.290361,-2.210642 0.331745,-3.2757 l 0.04355,-1.120635 h -3.940559 -3.940562 l 0.01828,2.120585 0.01828,2.120584 1.240667,0.04342 c 1.45597,0.05096 3.547299,0.22249 4.859278,0.398527 0.511777,0.06866 1.012613,0.129221 1.11297,0.134529 l 0.182474,0.0095 z M 12.061084,36.038303 c 0.0021,-0.828657 0.324262,-4.131014 0.456202,-4.677575 l 0.03458,-0.143316 -0.504213,-0.08604 c -1.127797,-0.192436 -4.0718869,-0.87456 -5.2468762,-1.21566 l -0.3314136,-0.0962 -0.1947993,0.434405 c -0.6613421,1.474783 -1.1726046,3.593801 -1.3456855,5.577487 l -0.04062,0.465495 H 8.4743301 12.0604 Z m 9.304319,-1.868582 v -2.12719 l -1.395749,-0.0432 c -1.542333,-0.04773 -3.152608,-0.179466 -4.864841,-0.397979 -0.619082,-0.07901 -1.138896,-0.130361 -1.155142,-0.114105 -0.111479,0.111537 -0.441824,3.297945 -0.441824,4.261715 v 0.547939 h 3.928779 3.928777 z m 9.236079,1.483127 c 0,-0.994053 -0.325045,-4.048751 -0.443423,-4.167192 -0.01388,-0.0139 -0.516812,0.03763 -1.117703,0.114437 -1.564023,0.199876 -3.440081,0.354756 -4.952376,0.408825 l -1.309595,0.04681 -0.01828,2.120585 -0.01828,2.120584 h 3.929775 3.929776 z m 8.615743,0.552598 c 0,-1.419647 -0.703081,-4.463341 -1.371943,-5.939261 l -0.198394,-0.437754 -0.886291,0.237332 c -1.333641,0.357118 -2.755058,0.686077 -4.022417,0.930903 -0.625503,0.120829 -1.14373,0.223643 -1.151612,0.22846 -0.0078,0.0048 0.03087,0.286778 0.08612,0.626575 0.131694,0.809925 0.287056,2.389216 0.347393,3.531461 l 0.04826,0.913748 h 3.574428 3.574433 z M 21.365403,28.504195 v -2.137826 l -0.08616,-0.0013 c -0.970442,-0.01522 -3.203982,-0.535304 -4.623947,-1.076756 -0.334958,-0.127726 -0.634447,-0.232227 -0.665531,-0.232227 -0.225813,0 -1.723731,4.225047 -1.723731,4.861977 v 0.153509 l 0.327396,0.04552 c 1.802349,0.250634 4.320223,0.454894 6.306724,0.511631 l 0.46525,0.01334 z m 4.893747,1.959855 c 1.261003,-0.09838 3.500768,-0.356651 3.594279,-0.414475 0.125919,-0.07786 -0.731979,-2.863089 -1.254393,-4.07251 -0.358419,-0.829765 -0.348544,-0.81819 -0.591588,-0.693406 -0.912201,0.468344 -3.591565,1.08271 -4.721901,1.08271 -0.17797,0 -0.372635,0.01873 -0.432598,0.04185 l -0.109025,0.04185 v 2.101321 2.101324 l 1.120047,-0.04461 c 0.616024,-0.02454 1.693851,-0.08937 2.395176,-0.144074 z M 13.023905,29.021411 c 0.37432,-1.482476 1.013938,-3.31431 1.475375,-4.225391 l 0.179465,-0.354318 -0.464825,-0.254226 c -0.255653,-0.139815 -0.806008,-0.45551 -1.223009,-0.701526 -0.417004,-0.246012 -0.77844,-0.45884 -0.803195,-0.472947 -0.186575,-0.106319 -2.4214467,1.936094 -3.3297589,3.043038 -0.8093168,0.986293 -1.7637257,2.398667 -1.6785099,2.483926 0.1316954,0.131764 5.2295178,1.289601 5.5254188,1.254955 l 0.127502,-0.01494 z M 32.9105,29.524967 c 0.840614,-0.169344 3.20432,-0.732557 3.87708,-0.92381 0.365744,-0.103979 -0.922713,-1.982761 -2.426034,-3.53755 -1.969326,-2.036764 -2.213824,-2.143957 -3.281055,-1.438482 -0.473373,0.312916 -1.009186,0.646521 -1.190692,0.741344 l -0.330015,0.1724 0.03168,0.137918 c 0.01739,0.07585 0.159047,0.426144 0.31471,0.778416 0.479305,1.084647 0.819948,2.140289 1.324956,4.106021 l 0.06782,0.263976 0.288835,-0.04599 c 0.158866,-0.02529 0.754084,-0.139701 1.322722,-0.254261 z M 24.082713,24.88293 c 0.929687,-0.121929 2.147956,-0.423975 2.935069,-0.727675 l 0.557232,-0.214996 -0.147766,-0.252386 c -1.031905,-1.762569 -2.606049,-3.159711 -4.097349,-3.636635 -0.637196,-0.203779 -0.58598,-0.41554 -0.58598,2.422852 v 2.513045 h 0.272171 c 0.149705,0 0.629672,-0.04688 1.066619,-0.104196 z m -2.71731,-2.443331 c 0,-1.36321 -0.02332,-2.492981 -0.0518,-2.510599 -0.225344,-0.139347 -1.63805,0.544727 -2.423602,1.173579 -0.766387,0.613503 -2.211559,2.340274 -2.211559,2.642484 0,0.130359 1.920065,0.740999 3.026317,0.962452 0.916687,0.183506 0.964146,0.190664 1.333253,0.201259 l 0.327396,0.0094 z m 8.848333,0.0758 0.473833,-0.31051 -0.129196,-0.09775 C 30.106275,21.76507 27.70489,20.733643 26.921669,20.545121 l -0.199057,-0.04791 0.445076,0.503677 c 0.551227,0.623801 0.974926,1.181891 1.389187,1.829817 l 0.318782,0.498594 0.432125,-0.251694 c 0.237667,-0.13843 0.645347,-0.391424 0.905952,-0.562204 z m -14.596039,0.21323 c 0.348758,-0.546425 0.797279,-1.131751 1.32394,-1.727752 l 0.445076,-0.503677 -0.199059,0.04728 c -0.514454,0.122219 -1.80934,0.637169 -2.705266,1.075843 l -0.989839,0.48466 0.0938,0.08772 c 0.139451,0.130379 1.596733,0.932445 1.694212,0.932457 0.04623,5e-6 0.197923,-0.178422 0.337128,-0.396523 z"
       id="path1" />
    <path
       id="path3"
       style="fill:#ffffff;fill-opacity:1;stroke:none;stroke-width:0.41383"
       d="m 36.143993,26.504657 c -2.548308,0.309912 -4.77788,1.756404 -6.941869,3.037981 -4.392774,2.707832 -8.330237,6.132002 -11.623735,10.102568 -2.025091,-2.842273 -4.047316,-5.68659 -6.074263,-8.527537 -1.9140537,2.487555 -3.8265386,4.97632 -5.7421609,7.462667 4.1995042,4.150196 8.3988369,8.300568 12.5984719,12.450632 3.027119,-5.371254 7.17233,-10.047734 11.032604,-14.870496 2.378038,-2.980385 5.030966,-5.76404 8.130786,-8.00173 0.741671,-0.661674 -0.08578,-1.70767 -0.921315,-1.6498 -0.152762,-0.01444 -0.305456,-0.01147 -0.458519,-0.0042 z" />
    <path
       style="fill:#0d6efd;fill-opacity:1;stroke:#000000;stroke-width:1.18147;stroke-dasharray:none;stroke-opacity:1"
       d="m 6.5345216,38.528358 4.9532534,-6.434759 6.056461,8.508143 c 0,0 3.707042,-4.77894 8.752025,-8.396961 9.829476,-7.049228 11.483872,-4.945227 10.797798,-4.435595 -4.666798,3.466591 -6.329381,5.764066 -12.436726,13.307193 -4.789773,5.915807 -6.425052,9.012368 -6.425052,9.012368 z"
       id="path2"
       sodipodi:nodetypes="cccssscc" />
    <text
       xml:space="preserve"
       transform="matrix(0.35453234,0,0,0.35453234,-39.497931,-9.1746595)"
       id="text1"
       style="font-size:64px;line-height:0.8;text-align:start;writing-mode:lr-tb;direction:ltr;white-space:pre;shape-inside:url(#rect1);display:inline;fill:#000000"><tspan
         x="225.5625"
         y="125.11131"
         id="tspan3"><tspan
           style="font-family:Calibri;-inkscape-font-specification:'Calibri, Normal'"
           id="tspan2">Web </tspan></tspan><tspan
         x="225.5625"
         y="178.54332"
         id="tspan5"><tspan
           style="font-family:Calibri;-inkscape-font-specification:'Calibri, Normal'"
           id="tspan4">Checker</tspan></tspan></text>
  </g>
</svg>
